<svg width="256" height="240" viewBox="0 0 256 240" fill="none" xmlns="http://www.w3.org/2000/svg">
<path d="M84.635 20.256C103.018 20.256 117.921 35.159 117.921 53.542C117.921 71.925 103.018 86.828 84.635 86.828C66.252 86.828 51.349 71.925 51.349 53.542C51.349 35.159 66.251 20.256 84.635 20.256ZM31.002 145.011C31.002 142.512 32.608 140.817 35.196 140.817C37.784 140.817 39.39 142.423 39.39 145.011V237.997H130.859V145.011C130.859 142.512 132.465 140.817 135.053 140.817C137.552 140.817 139.247 142.423 139.247 145.011V237.997H168.339V136.623C168.339 113.689 149.599 95.038 126.754 95.038H118.366L93.915 133.053L90.97 104.586L94.986 94.948H76.96L80.976 104.586L77.853 133.231L53.401 95.038H43.585C20.651 95.038 2 113.778 2 136.623V237.998H31.092V145.012H31.002V145.011ZM247.13 2H171.87C168.07 2 165 5.07 165 8.87V28.78L141.83 50H165V60.13C165 63.93 168.07 67 171.87 67H247.13C250.93 67 254 63.93 254 60.13V8.87C254 5.07 250.93 2 247.13 2ZM193 40H183V30H193V40ZM215 40H205V30H215V40ZM237 40H227V30H237V40Z" fill="black"/>
</svg>
