<svg width="16" height="26" viewBox="0 0 16 26" fill="none" xmlns="http://www.w3.org/2000/svg">
<path d="M11.4459 1.38219L1.38169 11.4464C0.618602 12.2095 0.618602 13.4467 1.38169 14.2098L1.40926 14.2374C2.17235 15.0005 3.40955 15.0005 4.17264 14.2374L14.2369 4.17314C15 3.41005 15 2.17285 14.2369 1.40976L14.2093 1.38219C13.4462 0.619103 12.209 0.619103 11.4459 1.38219Z" fill="#161615"/>
<path d="M1.40926 11.3808L1.38169 11.4084C0.618602 12.1714 0.618602 13.4086 1.38169 14.1717L11.4459 24.236C12.209 24.9991 13.4462 24.9991 14.2093 24.236L14.2369 24.2084C15 23.4453 15 22.2081 14.2369 21.445L4.17264 11.3808C3.40955 10.6177 2.17235 10.6177 1.40926 11.3808Z" fill="#161615"/>
</svg>
