<svg width="437" height="472" viewBox="0 0 437 472" fill="none" xmlns="http://www.w3.org/2000/svg">
<path d="M87.719 446.2H210.619C216.924 446.2 222.119 451.314 222.119 457.7C222.119 464.095 217.014 469.2 210.619 469.2H87.719C40.6221 469.2 2.21899 430.894 2.21899 383.7V87.5C2.21899 40.4031 40.5251 2 87.719 2H212.619C219.014 2 224.119 7.10457 224.119 13.5C224.119 19.8954 219.014 25 212.619 25H87.719C53.3166 25 25.219 52.9933 25.219 87.5V383.7C25.219 418.102 53.2123 446.2 87.719 446.2Z" fill="white" stroke="white" stroke-width="4"/>
<path d="M431.605 227.514L431.612 227.521L431.618 227.528C436.102 231.927 436.141 239.25 431.505 243.886L345.705 329.686L345.691 329.699L345.678 329.713C343.485 331.99 340.52 333.1 337.619 333.1C334.752 333.1 331.76 331.913 329.533 329.686C325.014 325.167 325.014 317.933 329.533 313.414L392.333 250.614L395.747 247.2H390.919H117.019C110.624 247.2 105.519 242.095 105.519 235.7C105.519 229.305 110.624 224.2 117.019 224.2H390.919H395.747L392.333 220.786L329.533 157.986C325.014 153.467 325.014 146.233 329.533 141.714C334.052 137.195 341.286 137.195 345.805 141.714L431.605 227.514Z" fill="white" stroke="white" stroke-width="4"/>
</svg>
