<svg width="162" height="32" viewBox="0 0 162 32" fill="none" xmlns="http://www.w3.org/2000/svg">
<g filter="url(#filter0_d)">
<path d="M42.8355 4.52039L44.4961 14.2894L49.5337 4.52039H53.1519L50.8047 18.0282H48.0772L48.7451 14.1781L50.0625 8.16638L44.8858 18.0282H43.021L41.2119 7.82312L40.3398 14.475L39.7183 18.0282H37L39.3472 4.52039H42.8355ZM58.8111 7.80457C59.6955 7.81694 60.4562 8.04578 61.0933 8.49109C61.7365 8.93022 62.2066 9.53943 62.5034 10.3187C62.8065 11.0918 62.9147 11.9515 62.8281 12.8978C62.6859 14.4935 62.1293 15.7862 61.1582 16.7758C60.1934 17.7592 58.9997 18.2385 57.5772 18.2137C56.7051 18.2014 55.9505 17.9787 55.3135 17.5458C54.6765 17.1067 54.2064 16.5005 53.9033 15.7274C53.6003 14.9543 53.492 14.1008 53.5786 13.1669C53.7394 11.5093 54.3023 10.1919 55.2671 9.21472C56.232 8.23751 57.4133 7.76746 58.8111 7.80457ZM56.167 14.1224C56.1794 14.7162 56.3185 15.1862 56.5845 15.5326C56.8504 15.8728 57.2246 16.049 57.7071 16.0614C58.5111 16.0861 59.142 15.7181 59.5996 14.9574C60.0573 14.1905 60.2707 13.1854 60.2398 11.9423C60.215 11.3485 60.0697 10.8754 59.8037 10.5228C59.544 10.1641 59.1698 9.97856 58.6812 9.96619C57.9019 9.94145 57.2772 10.3095 56.8072 11.0702C56.3433 11.8248 56.1299 12.8422 56.167 14.1224ZM67.6616 14.7162L70.5191 7.99011H73.3394L68.4873 18.0282H65.9824L64.2661 7.99011H66.9195L67.6616 14.7162ZM75.6123 18.0282H72.9776L74.7217 7.99011H77.3565L75.6123 18.0282ZM75.0279 5.43884C75.0155 5.02446 75.1516 4.68119 75.4361 4.40906C75.7206 4.13692 76.0638 4.00086 76.4658 4.00086C76.8617 3.98849 77.2049 4.10909 77.4956 4.36267C77.7863 4.61625 77.9378 4.94405 77.9502 5.34607C77.9626 5.72953 77.8327 6.06352 77.5606 6.34802C77.2946 6.63253 76.9452 6.78097 76.5122 6.79334C76.1226 6.80571 75.7793 6.68819 75.4824 6.4408C75.1918 6.1934 75.0402 5.85942 75.0279 5.43884ZM82.0137 7.98084L81.8003 9.12195C82.6105 8.21896 83.5908 7.77983 84.7412 7.80457C85.3597 7.81694 85.8731 7.95919 86.2813 8.23132C86.6895 8.50346 86.9647 8.87146 87.107 9.33533C87.9914 8.29008 89.0305 7.77983 90.2241 7.80457C91.1457 7.82312 91.8384 8.13855 92.3023 8.75086C92.7723 9.36316 92.9702 10.2476 92.896 11.4042L92.8775 11.6361L91.8106 18.0282H89.1851L90.252 11.6176C90.2767 11.3887 90.286 11.1753 90.2798 10.9774C90.2365 10.328 89.8654 9.99402 89.1665 9.97547C88.4491 9.97547 87.8337 10.3589 87.3203 11.1259L87.2925 11.3392L86.1236 18.0282H83.5073L84.5742 11.6361C84.599 11.4073 84.6083 11.1939 84.6021 10.996C84.5588 10.3404 84.1908 10.0033 83.4981 9.98474C82.8363 9.96619 82.2394 10.2785 81.7075 10.9218L80.4551 18.0282H77.8389L79.5738 7.99011L82.0137 7.98084ZM98.6573 18.2137C97.779 18.2076 96.9997 17.9942 96.3194 17.5736C95.6452 17.1469 95.1411 16.5655 94.8072 15.8295C94.4732 15.0873 94.3433 14.2709 94.4175 13.3803L94.4453 13.0092C94.5381 12.0319 94.8226 11.1351 95.2989 10.3187C95.7751 9.50232 96.3874 8.87455 97.1358 8.43543C97.8841 7.99011 98.7129 7.77983 99.6221 7.80457C100.915 7.82931 101.892 8.30554 102.554 9.23328C103.222 10.1548 103.475 11.3238 103.314 12.7401L103.166 13.8812H97.0152C96.9904 14.5306 97.1481 15.0502 97.4883 15.4398C97.8285 15.8295 98.2923 16.0305 98.8799 16.0428C99.8324 16.0676 100.667 15.6996 101.385 14.9388L102.582 16.4232C102.204 16.9922 101.66 17.4375 100.949 17.7592C100.237 18.0746 99.4737 18.2261 98.6573 18.2137ZM99.4922 9.96619C99.0098 9.95382 98.5799 10.1054 98.2027 10.4208C97.8316 10.7362 97.4976 11.2836 97.2007 12.0629H100.8L100.856 11.8217C100.893 11.5743 100.896 11.3392 100.865 11.1166C100.803 10.7579 100.652 10.4795 100.411 10.2816C100.169 10.0775 99.8633 9.97237 99.4922 9.96619ZM108.083 7.98084L107.86 9.16834C108.664 8.23442 109.638 7.77983 110.783 7.80457C111.729 7.82312 112.428 8.16948 112.879 8.84363C113.331 9.51778 113.495 10.4517 113.371 11.6454L112.313 18.0282H109.697L110.773 11.6176C110.804 11.3763 110.811 11.1568 110.792 10.9589C110.712 10.328 110.316 10.0033 109.604 9.98474C108.918 9.96 108.303 10.2785 107.758 10.9403L106.506 18.0282H103.89L105.634 7.99011L108.083 7.98084ZM119.68 5.52234L119.244 7.99011H120.914L120.57 9.95691H118.9L118.047 14.9852C118.01 15.3007 118.034 15.5419 118.121 15.7089C118.208 15.8759 118.418 15.9655 118.752 15.9779C118.851 15.9841 119.117 15.9686 119.55 15.9315L119.364 17.9818C118.9 18.1364 118.399 18.2076 117.861 18.1952C117.002 18.1828 116.361 17.9138 115.941 17.3881C115.52 16.8623 115.347 16.1511 115.421 15.2543L116.284 9.95691H114.865L115.208 7.99011H116.627L117.054 5.52234H119.68ZM125.469 18.2137C124.59 18.2076 123.811 17.9942 123.131 17.5736C122.457 17.1469 121.953 16.5655 121.619 15.8295C121.285 15.0873 121.155 14.2709 121.229 13.3803L121.257 13.0092C121.35 12.0319 121.634 11.1351 122.11 10.3187C122.587 9.50232 123.199 8.87455 123.947 8.43543C124.696 7.99011 125.524 7.77983 126.434 7.80457C127.726 7.82931 128.703 8.30554 129.365 9.23328C130.033 10.1548 130.287 11.3238 130.126 12.7401L129.978 13.8812H123.827C123.802 14.5306 123.96 15.0502 124.3 15.4398C124.64 15.8295 125.104 16.0305 125.691 16.0428C126.644 16.0676 127.479 15.6996 128.196 14.9388L129.393 16.4232C129.016 16.9922 128.471 17.4375 127.76 17.7592C127.049 18.0746 126.285 18.2261 125.469 18.2137ZM126.304 9.96619C125.821 9.95382 125.391 10.1054 125.014 10.4208C124.643 10.7362 124.309 11.2836 124.012 12.0629H127.612L127.667 11.8217C127.705 11.5743 127.708 11.3392 127.677 11.1166C127.615 10.7579 127.463 10.4795 127.222 10.2816C126.981 10.0775 126.675 9.97237 126.304 9.96619ZM143.81 15.1986C143.909 14.7038 143.566 14.3451 142.78 14.1224L141.936 13.9091C139.938 13.3586 138.967 12.3876 139.023 10.996C139.054 10.0497 139.471 9.27966 140.275 8.68591C141.085 8.08598 142.06 7.7922 143.198 7.80457C144.329 7.81694 145.245 8.1169 145.944 8.70447C146.643 9.29203 146.998 10.0744 147.011 11.0516L144.413 11.0424C144.425 10.1827 143.999 9.74662 143.133 9.73425C142.724 9.73425 142.369 9.83631 142.066 10.0404C141.769 10.2445 141.586 10.5197 141.518 10.8661C141.426 11.3609 141.8 11.7103 142.641 11.9144L143.012 11.9979C143.866 12.202 144.518 12.4371 144.97 12.703C145.421 12.9628 145.767 13.2875 146.009 13.6771C146.256 14.0668 146.37 14.5337 146.352 15.078C146.333 15.715 146.126 16.2717 145.73 16.7479C145.341 17.2242 144.803 17.5922 144.116 17.8519C143.436 18.1117 142.718 18.2323 141.964 18.2137C140.85 18.2014 139.923 17.8829 139.18 17.2582C138.438 16.6273 138.061 15.814 138.049 14.8182L140.516 14.8368C140.541 15.7955 141.055 16.281 142.056 16.2933C142.539 16.2933 142.935 16.1944 143.244 15.9965C143.559 15.7985 143.748 15.5326 143.81 15.1986ZM152.336 18.2137C151.458 18.2076 150.678 17.9942 149.998 17.5736C149.324 17.1469 148.82 16.5655 148.486 15.8295C148.152 15.0873 148.022 14.2709 148.096 13.3803L148.124 13.0092C148.217 12.0319 148.501 11.1351 148.977 10.3187C149.454 9.50232 150.066 8.87455 150.814 8.43543C151.563 7.99011 152.391 7.77983 153.301 7.80457C154.593 7.82931 155.57 8.30554 156.232 9.23328C156.9 10.1548 157.154 11.3238 156.993 12.7401L156.845 13.8812H150.694C150.669 14.5306 150.827 15.0502 151.167 15.4398C151.507 15.8295 151.971 16.0305 152.558 16.0428C153.511 16.0676 154.346 15.6996 155.063 14.9388L156.26 16.4232C155.883 16.9922 155.339 17.4375 154.627 17.7592C153.916 18.0746 153.152 18.2261 152.336 18.2137ZM153.171 9.96619C152.688 9.95382 152.258 10.1054 151.881 10.4208C151.51 10.7362 151.176 11.2836 150.879 12.0629H154.479L154.534 11.8217C154.572 11.5743 154.575 11.3392 154.544 11.1166C154.482 10.7579 154.33 10.4795 154.089 10.2816C153.848 10.0775 153.542 9.97237 153.171 9.96619Z" fill="#5965E0"/>
<path d="M136.648 13.3247H131.564L131.935 11.1631H137.028L136.648 13.3247Z" fill="#4CD62B"/>
</g>
<g filter="url(#filter1_d)">
<path d="M17.3666 1H23.6409L18.4213 24.1273H12.147L17.3666 1Z" fill="#5965E0"/>
<path d="M26.5732 1H32.8475L28.7806 19.1208H22.5049L26.5732 1Z" fill="#5965E0"/>
<path d="M8.06832 1.00024H14.3426L10.2758 19.121H4L8.06832 1.00024Z" fill="#5965E0"/>
</g>
<defs>
<filter id="filter0_d" x="33" y="3" width="128.04" height="22.2156" filterUnits="userSpaceOnUse" color-interpolation-filters="sRGB">
<feFlood flood-opacity="0" result="BackgroundImageFix"/>
<feColorMatrix in="SourceAlpha" type="matrix" values="0 0 0 0 0 0 0 0 0 0 0 0 0 0 0 0 0 0 127 0"/>
<feOffset dy="3"/>
<feGaussianBlur stdDeviation="2"/>
<feColorMatrix type="matrix" values="0 0 0 0 0.103299 0 0 0 0 0.103958 0 0 0 0 0.104167 0 0 0 0.28 0"/>
<feBlend mode="normal" in2="BackgroundImageFix" result="effect1_dropShadow"/>
<feBlend mode="normal" in="SourceGraphic" in2="effect1_dropShadow" result="shape"/>
</filter>
<filter id="filter1_d" x="0" y="0" width="36.8475" height="31.1273" filterUnits="userSpaceOnUse" color-interpolation-filters="sRGB">
<feFlood flood-opacity="0" result="BackgroundImageFix"/>
<feColorMatrix in="SourceAlpha" type="matrix" values="0 0 0 0 0 0 0 0 0 0 0 0 0 0 0 0 0 0 127 0"/>
<feOffset dy="3"/>
<feGaussianBlur stdDeviation="2"/>
<feColorMatrix type="matrix" values="0 0 0 0 0.103299 0 0 0 0 0.103958 0 0 0 0 0.104167 0 0 0 0.28 0"/>
<feBlend mode="normal" in2="BackgroundImageFix" result="effect1_dropShadow"/>
<feBlend mode="normal" in="SourceGraphic" in2="effect1_dropShadow" result="shape"/>
</filter>
</defs>
</svg>
